<svg id="レイヤー_1" data-name="レイヤー 1" xmlns="http://www.w3.org/2000/svg" viewBox="0 0 120 120"><defs><style>.cls-1{fill:#121416;}</style></defs><path class="cls-1" d="M90,43.56a1.44,1.44,0,0,0-1.37-1.13c-5.58-.32-11.27-.53-16.91-.63l-.48-9.56a136.52,136.52,0,0,1-22.06,0l-.48,9.69c-6.67.2-12.85.53-18.16,1a1.75,1.75,0,0,0-1.62,1.47c-2.72,19.2-3,53.61-3,53.61,16.62,2.42,51.26,1.3,68.34-.17C94.17,97.8,93.84,63.33,90,43.56Z"/><path class="cls-1" d="M71,28.47l-.36-7a66.07,66.07,0,0,0-21,0l-.36,7C55.4,29.1,63.18,28.8,71,28.47Z"/></svg>