<svg id="地図" xmlns="http://www.w3.org/2000/svg" viewBox="0 0 240 240"><defs><style>.cls-1{fill:#f2f2f2;}</style></defs><path class="cls-1" d="M197.87,24c-.52.32-.83.77-1,.32s.39-1.09-.52-1.55-2.56-1-2-.44,1,1.54.26,1a19.71,19.71,0,0,0-3.79-2c-1.41-.52-3.14.43-4.24,0a13.65,13.65,0,0,1-2.5-1.79,29.06,29.06,0,0,0-4.87-2.14c-1.35-.45-1.8-1.15-2.32-.9s-1.2,1.1-2.3.58a14,14,0,0,1-2.76-1.55c-.63-.5-1.6-1.13-1.91-1.92s-1.35-1.21-1.62-1.86,0-1.8-.37-2.3-.82-1-1.48-.91-1.79.38-1.79,1,.07,3.54-.27,3.73-.44.56-.13.76,1.41,1.42,1.79,1.42.45.26.46.64-.39,1.27-.32,1.47.82.9,1.34,1.6,1.16,1.3.57,1.87a8.83,8.83,0,0,1-2.5,1.47c-.57.2-4.55,1.4-5,1.46s-1.17,1.73-1.67,1.79-.27.84-.59,1.42-1.4,1.47-1.6,2.18-.45,1.73-1.1,1.73-2.89.3-3.14.63.33.76.05,1a2.76,2.76,0,0,0-.63,1.28c0,.44.18,3.39-.14,3.39a5.35,5.35,0,0,1-1.93-.57c-.51-.33-2.42-1.68-2.68-2.45s-1.28-1.66-1.6-2.23-.71-1.3-.9-1.09-.33,1.2-.78.74-2-1.4-2.23-2,.12-1.1-.45-.91a5.38,5.38,0,0,1-3.27-.2c-.95-.51-1.8-1-2-1.78s-1.6-3.15-1.35-4.12,1-1.08.38-1.86a4.33,4.33,0,0,0-2.5-1.73c-.7,0-1.66.72-2.94-.27a6.11,6.11,0,0,1-1.92-3.2,25.81,25.81,0,0,0-2-2.82c-.33-.57-.07-.44-1-1.1s-2.17-2-2.5-1.85-.58.76-1.42.63a15.3,15.3,0,0,0-1.92-.46,5.7,5.7,0,0,0-1.92,2.32c0,.44.37,1.21.31,1.66s-.44.39-.05,1.6,1.53,3,1.27,4.19.19,2.42-.33,3.39a3.4,3.4,0,0,0-.13,2.81A23.23,23.23,0,0,1,119.21,31c.31,1.87.37,6.47,0,6.48s-1.14.55-1.14,1.14.69,2.23.38,2.83-.59,1.66-.21,2,.71,1.29,1.48,2.19a20.85,20.85,0,0,1,2,3.51c.58,1,1.29,1.87,1,2.13s-2,.83-2.38,1.41-.33,1-1.1.9-1.27-.64-1.73-.48-1.08.92-1.68.91-.37-.52-1-.05-1.86,2-1.79,2.5a9.41,9.41,0,0,0,.51,2.75,6.94,6.94,0,0,1,.57,1.8c.26.95,1.73,2.1,1.46,2.25s-.69.12-.32.57,1.1.51.78,1.22-1.3.58-1.17,1.86.64,1.21,1.3,2.18.32,3.06.3,4.1a39.72,39.72,0,0,1-.65,4.3c0,4.59.66,7.91,1.75,8.73s.83,1.78-.54,2.87-2.47,1.63-3.15,3-2.2,4.51-2.89,6a16.44,16.44,0,0,0-.83,5.74c0,1.64-1.1,6-3.15,6s-3.56,1.21-4.51-.31-.55-2-1.79-2.19-4.5.4-4.64,1.51.13,2.59-1.24,1.64-4.79-1.51-5.06-1,.4,3.57-1.52,4-7.12,1.21-8.21.94.27,1.77-2.06,1.09-2.71-2.18-3.68-.27,1.08,3.42-.83,3.55-6.71,1.63-7.25,3.14,1.51,3.54.54,4.64-2,2.18-2.75,1.09.69-1.22-.82-1.9-5.47-.71-6.7.26-1.24,3.83-1.1,5.33-1.5,2.45-1.79,4.5-.83,3.29-3.84,4.8-7,4-8.63,4.22a13.87,13.87,0,0,1-4.78-.28c-1.24-.29.15,1.36-1.1,1.35s-1.9-.81-2.45-.4c0,0,.11,5.47.39,7.1s3.82,8.36,4.37,9.45.95,4.78,1.63,4.92,3.82,1.51,4.79,1.66,1.77-1.73,1.87-2l0-.09s.54-2.46,1.23-2.46A3.32,3.32,0,0,1,49.91,167c.13,1.91,2.17,6,4.23,8.07s6.42,5.49,6.83,7,.54,4.39,4,6.14,4.51.45,4.5,2-1,4.63,1,4.77,5.06,2.75,7.11,4.26,3.56,0,4.79,1.09a29.77,29.77,0,0,0,5.88,4.25c3.15,1.78,10.67,4.67,12.17,6.31s2.31,3,4.25,1.64,4.51-2.74,6.57-2.72,4.36,1.37,6.82-.26,3.3-2.59,4.81-2.05,5.06,2.19,7.1-.4,3.3-4.77,6.45-5.74,6,.28,8.08-1.07,3.29-2.46,4.24-1.76,6.82,4.36,5.47,2.18-1.35-4.24-.27-5.88a10.61,10.61,0,0,0,.94-2.67,29.05,29.05,0,0,0-5.28-.94c-3.19-.09-5.13-2.45-6.78-2.82a20.58,20.58,0,0,0-7.84.31c-2.36.65-6.14-2.57-4.68-2.71s2.64-2.14.4-2.67-8.57-.6-11.08-.7-8.48-6.36-7.52-7.85,6.19,2.67,7.64,2.53,12,.17,13.06.15,3.42-2.28,3.42-2.28a22.94,22.94,0,0,0-.85-3.86c-.57-1.54-2.47-2.63-3.59-3.07s-4.68-3.85-4.31-4.66,1.72,1.72,3.32,2.34,1.49-1,2.92-1.43c.84-.28,4.49,4.84,5.49,6.46s2,3.59,3.62,6.16,17,14.73,15.74,15.38a4,4,0,0,1-2.11,0c1.13,1,2.31,2.87,3.78,3.44,1.78.68,6,3.84,6.85,4.25s4.64,3.42,4.64,4.37,1.23,6,3.55,6.18,7.8.53,9.85,3,3.41,6.71,5.18,8.9,9.17,8.36,12.45,8.77a8,8,0,0,0,4.49-.65h0c-1.43-.48-3.44-1.81-6.94-6.85-4.39-6.32-9.68-15.08-9.7-16.45s-2.19-2.88-3.41-4.79-4.92-11.21-5.59-12.73-1.38-.42-2.47-1.09-4.76-11.62-5.72-14.1-2.47-5.06-3.4-8.06-2.61-5.48-2.74-7.55a31.69,31.69,0,0,0-1.77-7.24c-.69-1.78-.41-3.83-1.49-6s-1-9.44-.26-10.39.28-4.25.28-6,1.1-2.89,1.92-2.88,1.91-1.49,1.78-2.33-1.36-3-.54-3.69,1.49.14,2.46.68.41-.68.41-1.36,1.51-1.77,1.91-2.05a6.58,6.58,0,0,0,1.26-4c0-1.77-1.25-1.09-1.93-1.64s-1.09-5.32-1.07-7.11,1.49-1.22,2.59-1.34-.14-1.66-1.1-1.67-1.09-2.18-.81-3.43,0-4.77.83-5.46,3.29-4.09,3-5,.13-1.5.69-2.33,1.65-5,2.74-9c1-.82,3-5.33,3.6-6.86s.83-3.19,1.55-4.83,1-1.53,2.27-3.07a4,4,0,0,0,1-3.27,52.25,52.25,0,0,1,1.75-7.69,16.7,16.7,0,0,0,.41-5c0-1.24,1-1.64,1.75-2.35s.54-3.6.84-4.63a11.25,11.25,0,0,1,1.54-2.76c.4-.62,2.67-6.66,3.51-7.39s.81.64,1.93.94,1.13-.92,1-1.55-.3-1.43-.6-2.87a5.8,5.8,0,0,1-.07-1.59A1,1,0,0,0,197.87,24Z"/></svg>