<svg id="地図" xmlns="http://www.w3.org/2000/svg" viewBox="0 0 240 240"><defs><style>.cls-1{fill:#f2f2f2;}</style></defs><path class="cls-1" d="M141.38,87c.32.14,3.46,1.43,3.86,1.52a6.44,6.44,0,0,0,1.09.29c.66-.12-4.74-1.81-5-2S141.07,86.89,141.38,87Z"/><path class="cls-1" d="M147.41,89.13c.21.14.39.28.58.25s0-.13-.13-.21,0,0,.23,0a4.35,4.35,0,0,0-1.19-.36C146.78,88.82,147.11,88.93,147.41,89.13Z"/><path class="cls-1" d="M212.13,125.43c-.31.08-.43.28-.83.11s-.68,0-.77-.2,0-.46-.17-.34-.17.37-.37.31-.4-.17-.43,0a.93.93,0,0,1-.89.46c-.45,0-1.51-.46-1.68-.46s-.34.31-.52.57a3.27,3.27,0,0,1-.86.94c-.43.29-.6.06-.94.46a7.77,7.77,0,0,0-.63.91,1.21,1.21,0,0,1-.72.37c-.11,0,.2,0,.06.26s-.58.43-.69.34a.22.22,0,0,0-.37.17c0,.26.09.49,0,.54s-.54.15-.61.43-.19.66-.36.74.11.35.25.26,0-.34.23-.08a3.37,3.37,0,0,1,.57,1.06c0,.17-.63.85-.57.71a.53.53,0,0,0-.09-.63c-.22-.2,0-.46-.17-.57s-.31,0-.39-.23-.06-.46-.29-.6-1.4-.21-1.6-.4-.49-.23-.66-.35-.74-.46-.65-.26,1,.58.85.58-.94,0-.66.11l.66.23c.23.08.8.23.94.31s.57.41.2.35-1.31-.29-1.63-.29a4.49,4.49,0,0,1-1.42-.15,9.45,9.45,0,0,0-1.52-.74c-.17,0-.26.4-.4.34s-.51-.48-.43-.74.34-.49.6-.4,1,.17.75,0a13.65,13.65,0,0,0-1.89-1,2.66,2.66,0,0,1-1.4-.08c-.43-.26-.72-.58-.55-.8s.32-.75.66-.72,1.12-.08,1.38.15.43,0,.42.31a1.7,1.7,0,0,0,.4.89c.17.14.55.34.63.23a.26.26,0,0,1,.37,0c.06.08.15.4.38.4s.62.08.48,0-.91-.92-1.17-1.06a6.73,6.73,0,0,1-.94-1.09,15.92,15.92,0,0,1-1.42-3.86,12.16,12.16,0,0,0-.52-3.06c-.25-.34,0-1-.34-1.54a25.58,25.58,0,0,0-.88-2.43,3.51,3.51,0,0,1-.54-.83c-.09-.2-.43-.57-.26-.55s.37.32.31.12-.37-.37-.22-.46.6.09.91.23a3.76,3.76,0,0,0,1.29.37c.37,0,.57.41.43.41s-.26.45.08.23.66-.29.52-.2-.49.42-.2.42.77-.45.88-.34.09.2.29.2.46,0,.46.26-.29.57-.14.49.37-.43.45-.26,0,.8-.17.83a10.49,10.49,0,0,0-1.49.28c-.2.12-.23.09,0,.23a1.76,1.76,0,0,0,.92.23c.39,0,1.17-.17,1.17-.48a2.87,2.87,0,0,0-.37-1.26,6.3,6.3,0,0,0-1.72-.86,12.12,12.12,0,0,0-1.88-.6,17.54,17.54,0,0,1-2.32-1c-.11-.14-.8-.43-.91-.6s-.57-1.4-.77-1.92a14.46,14.46,0,0,0-1.09-2,2.66,2.66,0,0,1-.74-1.52c0-.68-.23-.82-.2-1s.23-.28.21-.56-.35-.26,0-.55a3.44,3.44,0,0,0,.89-1.17,6.16,6.16,0,0,0,.15-2c0-.26.12-.63.14-.94a4.37,4.37,0,0,1,.44-1,4,4,0,0,1,.62-1.09c.26-.26-.08-.34.12-.69a4.37,4.37,0,0,1,.72-1c.31-.32.17-.4.4-.72a5.5,5.5,0,0,1,.74-1.08c.46-.46.4-.77.69-1a8.46,8.46,0,0,0,.6-.6,2.1,2.1,0,0,0,.58-1.26,2.41,2.41,0,0,1-.09-1c.09-.26.2-1.06.35-1.4a3.39,3.39,0,0,1,.57-1.14c.29-.29,1.15-.91,1.23-1.14a14.31,14.31,0,0,1,1-1.52c.2-.25.06-.65.17-.83s.4-.19.46-.68,0-.77.14-.92.66-.91.52-1.14a3.44,3.44,0,0,1-.57-1.34c-.06-.55.2-.94-.06-1.17s-.4-.18-.4-.46.12-.26-.05-.46-.43,0-.49.14-.31.2-.31.43,0,.32-.18.49-.68.28-.71.51.08.66-.32.86-.48.31-.54.4-.52.91-.78,1a1.42,1.42,0,0,0-.57.69c-.09.23-.63,2.06-1.12,2.37a5.26,5.26,0,0,1-1,.63c-.21,0-.38.54-.61.54a1.26,1.26,0,0,0-.71.4c-.12.14-.86,1.14-1.18,1.23s-.49.6-.71.65A7.33,7.33,0,0,0,184.81,91c-.25.28-.25.94-.65,1.25s-1.35.89-1.52,1.06-.35.77-.57.69-.4.17-.55.45a13.59,13.59,0,0,1-1.32,1.89,3.54,3.54,0,0,1-1.17.8c-.37.11-.8.91-.94,1.11a12.6,12.6,0,0,1-1.47,1c-.25.16-1.74.82-5.06.82S161,98.49,160.19,97.35s-.63-1-.75-1.29-.33-.52-.25-.72.23-.25.14-.37-1.23-.48-1.2-.91.29-.26.2-.6-.28-.55-.23-.92a2.26,2.26,0,0,0,0-1.23c-.17-.42-.09-.8-.32-.68a2.61,2.61,0,0,1-1.28.4c-.49-.06-.49.31-.46.65a12.76,12.76,0,0,1,.11,1.43,1.1,1.1,0,0,1-.46.83c-.28.14-.17.6-.31.74a2.27,2.27,0,0,1-1.35.72c-.6,0-1.17-.32-1.17-.69a5,5,0,0,1,.35-1.89.82.82,0,0,0,.31-.68c0-.2-.25-.43.09-.52s1.66-.37,1.8-.43.4-.14.23-.22-6.72-1.47-6.91-1.61-.26-.12-.35.22a7.2,7.2,0,0,1-.55,1.72c-.23.28-.4.8-.69.48s-.34-.51-.53-.51-.64-.09-.55-.26.31-.6.12-.49a2.47,2.47,0,0,1-1.41.46c-.51-.09-.88-.49-1.2-.4s-.65.51-1.08.45-.94-.45-1-.37-.55.37-.52.23.15-.66-.19-.83-.55-.06-.55.17-.09.6-.26.4-.11-.83-.2-1.06-.57-.54-.57-.88.15-.23,0-.43-1.31-1.12-1.31-1.41a.85.85,0,0,1,.28-.59c.12-.12.29.11.55.11s1-.17,1-.06,0,.29.14.32.86.14,1,0-5.88-2.44-9.12-4.24-4.48-2.78-4.6-3,0-1.14-.39-1.4-1-.57-1.43-.89-2.66-1.89-2.94-2.18-3.49-2.43-4-2.83-1.85-1.75-1.85-1.75.2-.48.11-.43-.25.29-.94-.11a6.57,6.57,0,0,1-1.54-1.32,33.86,33.86,0,0,0-2.37-3.2c-.68-.66-2.8-3.07-3.06-3.26a15.41,15.41,0,0,1-2.31-2.29c-.83-1.09-1.94-2.52-2.23-3.07s-.08-.4-.36-.68a6.13,6.13,0,0,1-1.12-1.15c-.23-.43-.94-2.06-1.06-2.23s-.22-.09-.39-.26A6.21,6.21,0,0,1,100,50.76c-.06-.37.31-.43.17-.71s-.37-.63-.34-.89a.61.61,0,0,0-.2-.63c-.23-.23-.31-.54-.63-.8a2,2,0,0,1-.74-1.2c-.11-.57.11-.52-.28-1.12A8.49,8.49,0,0,0,96.89,44c-.37-.37-2-1.92-2.31-2.23s-2.68-3.24-3.28-4-2.46-2.89-2.74-3.37-2-3.15-2.23-3.44a8.14,8.14,0,0,0-2.26-2.12,11.31,11.31,0,0,1-2.85-2.4c-.34-.54-.37-.8-.54-1s0-.26-.14-.55-.38-.37-.6-.57A4.78,4.78,0,0,1,79,23.27c-.26-.46-.31-1.26-.57-1.58s-.37-.4-.54-.4-.43-.17-.72-.2-.57-.09-.71,0-.6.23-.63.57a.63.63,0,0,1-.31.57c-.18.11-.24.69-.23.89s-.21,0-.12.43a2.64,2.64,0,0,1-1.12,2.34c-.95.51-2.43,1.17-2.86.82s-.49.17-.57.17-1,.57-1.29.26-.26-.06-.54-.29-.37-1-.51-1.17-.32-.34-.6-.66-.43-.54-.46-.23-.26,2-.23,2.49.74,1.17.74,1.6a2,2,0,0,1-.49,1.4c-.4.43-.34,1-.54,1s-.52.11-.46.37.31.6.19.89a8.41,8.41,0,0,1-1,1.74A2.61,2.61,0,0,0,64.76,36a8,8,0,0,0,.8,4.06c.88,1.86,4.19,9.24,4.93,12.56a75.38,75.38,0,0,1,1.67,9.17,50.56,50.56,0,0,1-.06,5.52,1.83,1.83,0,0,1-.32,1c-.15.23-.37.38-.4,2.21a13.93,13.93,0,0,1-.93,4.8c-.31.4-.8,1.11-.94,1.34s-.15.8-.38,1a1,1,0,0,0-.34.55c-.06.23-.23.25-.26.54s.09.57-.26,1-.22.72-.48.72-.37-.12-.37.54.31,1.14.31,1.74-.09,3.09-.09,4.55.3,6.06.27,6.74a20.69,20.69,0,0,1-.63,3.29,1.11,1.11,0,0,0,.14.91.3.3,0,0,0-.29.15c-.11.17-.11.62-.31.85a8.88,8.88,0,0,0-.95,1.51,2.51,2.51,0,0,1-.69.92c-.2.14-1.29,1-1.57.88s-.34-.2-.57-.11-.46.74-.89.91a12.7,12.7,0,0,1-1.54.31c-.32.09-1.06.57-1.35.63A3.57,3.57,0,0,0,58,105.38c-.29.4-.43,1.45-.8,2a3.16,3.16,0,0,0-.58,2.89c.4,1.52,1,3.4,1.14,3.78s.77,1.25.57,1.68a10.86,10.86,0,0,0-.58,1.8c-.11.55-.59,1.14-.25,1.63s2.28,3.89,2.31,4.69-.15,3.26-.16,3.83-.17.74-.6,1.26-.82,1.2-1,1.43-1.52,2-1.86,2.39-.48.46-.63.46,0,.12,0,.17-.06.17-.29.23-.17.37-.31.46-.4.11-.54.28a2.19,2.19,0,0,1-.58.52c-.2.08-.34.08-.43.25a2.76,2.76,0,0,1-1.06.66c-.31.08-1.32.83-2,.82s-.83-.6-1.23-.86-.66-.6-1-.65-.45.17-.77,0a.64.64,0,0,0-.43-.06c-.23,0-1,0-1.28-.37s-.75-1.2-.61-1.23.52-.17.46-.48-.22-.72-.13-.86.19-.23,0-.2-.88,0-1.11,0-.77.57-1,.57-.74-.11-.92.09,0,.52-.2.57-1.54.57-1.72.34-.25-.77-.34-.6,0,.77-.08.77a7.91,7.91,0,0,1-2.09.4c-.4-.14-.83-.32-.77-.6s.31-.77,0-.92a4.35,4.35,0,0,1-1.09-.43,2.91,2.91,0,0,0-1.06-.71,2.84,2.84,0,0,1-1-.38c-.23-.17-1.32-.2-1.38-.54s.12-.69,0-.8-1.71-.75-2-1-1.74-1.61-1.89-1.84-.11-.54-.25-.54-.32.26-.46.06-.14-.55-.49-.69-.43-.06-.68-.17-.49.25-.63.25.34.15.23.29a4.59,4.59,0,0,0-.29.77,1.9,1.9,0,0,1-.89.63,5.19,5.19,0,0,1-1,0c-.23,0-1.26.11-1.63.11s-.32.12-.26.34.35.55.2.75a4,4,0,0,0-.46.88c-.11.35-.25.37-.2.57s.09.66-.14.72,0,.26,0,.43-.26.65-.32,1.06a2.41,2.41,0,0,0,.45,1.51,16.32,16.32,0,0,0,1.52,1.75,4.23,4.23,0,0,1,1.42,1.23c.43.68,1.29,1.54,1.35,2s0,.63.51,1,.48,1.23.77,1.63.45.51.69.51.34.38.34.63.14,1.29-.58,1.52A8.42,8.42,0,0,0,26,145.2c-.51.31-.8.66-1.14.88s-.43.49-.75.72a3,3,0,0,0-.6.57c-.17.2-.43,1.2-.69,1.49s-.6,1.16-.83,1.28a6.85,6.85,0,0,0-1.35,1.28,2,2,0,0,0-.11,1.57c.17.55.11.78-.17,1s-1.41.82-1.78.39-.14-1-.43-1.31-.65-.49-1-.83-.35-.46-.49-.46a20.32,20.32,0,0,0-1.32,1.66c-.34.37-.46.94-.31,1.11a.45.45,0,0,1-.12.6c-.17.09-.17-.06-.57.08s-.49.55-.75.55a1.71,1.71,0,0,0-1.05.48,3.8,3.8,0,0,0-.44.91,1.23,1.23,0,0,1-.42.55,3.12,3.12,0,0,1-1.63.42A11,11,0,0,0,8.34,158c-.54,0-2.32.4-2.8,1.19s-.55,1.37-1,1.69-.89.63-.86,1,.29.54.34.74,0,1.8.06,2.23a11.59,11.59,0,0,1,.42,1.69c0,.43.17,3.31.06,3.83a11.39,11.39,0,0,1-.72,2,4.52,4.52,0,0,1-.46.68c-.29.35-.43.94-.83.94s-.46.55-.52,1.18-.29,1.28-.17,1.37a1.17,1.17,0,0,1,.34.8,1.51,1.51,0,0,1-.28.85c-.12.15.2.35.34.75s.51,1.06.71,1,.26-.2.35.06.22.31.34.2.11-.06.31,0,.86.17,1.11.23a.59.59,0,0,1,.46.51,5,5,0,0,0,.09.8c.08.18,1.34,2.43,1.39,2.66s2.29.32,2.86.66a5,5,0,0,1,1.86,2c.31.8,1.74,2.77,1.83,3.14s.62.83.62,1.06.31.69.26.83a1.69,1.69,0,0,0-.12.72,15.77,15.77,0,0,1,0,3.43,8,8,0,0,0-.43.71c-.06.17.08.29.06,1.09s.14,1.68-.27,1.68-1-.43-1.28-.11-.06,1.08-.26,1.71a13.83,13.83,0,0,1-1.27,2.37,10.63,10.63,0,0,0-1.06,2.77c-.11.75-.63,2.83-.66,3.63a4.6,4.6,0,0,0,.43,2.06c.25.6,1.08,3.31,1.28,3.72s1.54,1.91,1.94,1.83,1.35-.49,1.72-.28A21.73,21.73,0,0,0,16.63,219a7.06,7.06,0,0,0,1.46-2.14c.44-.91.63-.77.78-1.31a1.76,1.76,0,0,1,1-1,14.87,14.87,0,0,0,1.8-.94c.34-.26,1.43-.14,1.95-.34s1.43-1,1.29-1.49a6.25,6.25,0,0,1-.4-1.68c0-.55.43-3.09.43-3.57a2.45,2.45,0,0,1,1-1.55c.37-.2,1.72-.05,2.17-.28a12.15,12.15,0,0,0,1.6-1.25c.35-.29,1-.43,1.12-.66s.43-1.57.69-2.14.55-1.2,1.17-1.31a1.84,1.84,0,0,1,1.44.22c.42.26,1.31,1,1.25,1.29s0,.75-.4.72-.57,0-.55-.26-.08,0-.31.17a1,1,0,0,0,0,1.14c.23.2.49,0,.69-.22s.37-.75.65-.75,1-.4,1.55-.22a12.32,12.32,0,0,0,2.26.69,18.13,18.13,0,0,1,2.45.77c.49.12,1.21.83,1.2,1.12s.57.57,1.23.28.23-.05.78-.28.68,0,.91-.25.72-.52,1.18-1,.11-.83.48-.86.32-.2.57-.6.32-.54.66-.54,1.2.2,1.52-.08.8-.32.8-.49.12-.74-.39-.89-.87-.23-1-.45,0-1.21-.34-1.4-.57-.41-1.12-.72a7.05,7.05,0,0,0-2.34-1.06,1.67,1.67,0,0,1-1.37-.18,7.42,7.42,0,0,1-1.4-1.2c-.26-.37-.69-.6-.69-.83a1.22,1.22,0,0,0-.2-.66,6.13,6.13,0,0,1-.68-.85c-.14-.32.14-.2-.28-.61s-.43-.74-.95-.91a4.2,4.2,0,0,1-1.2-.77c-.17-.15-1.26-1.18-1.31-1.63s0-.8-.14-.8a1.34,1.34,0,0,1-1-.55c-.2-.4-.09-.86-.35-1.14s-1.14-.69-1.48-1-.15-.35-.49-.06a1.6,1.6,0,0,1-1.4.37,7,7,0,0,0-2.2.6,3.38,3.38,0,0,1-2.4-.44c-.72-.57-.86-.91-1.34-1.29A7.26,7.26,0,0,1,26,182.7a2.31,2.31,0,0,0-1.17-1,2.53,2.53,0,0,1-1.2-.84,3.23,3.23,0,0,0-1.31-.91c-.78-.35-2.21-.72-2.52-1.23s-.37-.72-.14-2.15a40.54,40.54,0,0,1,1.61-6.54c.61-1.37,3.87-6.43,5-6.83s1.2,0,1.63-.13a1.17,1.17,0,0,1,1.23.14c.4.29.54.77,1.26.51s1.23-.39,1.54-.53a2,2,0,0,1,1.2-.15c.52.09.94-.11,1.57,0s1,.81,1.26,1.12,1.14.86,1.11,1.15-.25.62,0,.71.57.23.48.32-.31,0-.26.14-.26.43.23.48.72-.31.83.12a2.15,2.15,0,0,0,.66,1.09c.28.23,0,.25.6.4a1.94,1.94,0,0,1,1.23,1.2c0,.31.79,1.89.85,2.49a1.37,1.37,0,0,0,1,1.26,2.38,2.38,0,0,1,1.51.94c.17.4.23,1,0,.8s-1-1-1.17-.89-.52.15-.46.46.37.89.69.89a.51.51,0,0,1,.54.31c.09.2.54.26.77.32s.57-.06.57-.34a1.87,1.87,0,0,1,.74-1.2c.35-.15,2.58-3,3.39-3.86s1.37-.79,1.89-1.31,6.7-5.33,7.9-6,5.78-2.59,8.21-2.65a16.23,16.23,0,0,1,4.86.78s-.17.31,0,.37.68.17.68,0,.06-.32.35-.32.8.15.51.15-.66.22-.34.28a16.46,16.46,0,0,1,2.63,1.29c.2.2.6.89.88,1a3.25,3.25,0,0,1,1.17.66,6.7,6.7,0,0,0,1.29,1.43,3.36,3.36,0,0,1,1,.66c.08.14-.06.43.48.6s1.61.17,2.26.41,2.52.37,3.6,1.4,2.49,3.12,3.29,3.83a9.89,9.89,0,0,0,2,1.26c.25.18,1,1.21,1.54,1.32s1.17-.17,1.68.49,1.29,1.54,1.63,1.55a2.19,2.19,0,0,1,.92.34,10.87,10.87,0,0,0,1.71.72,9.21,9.21,0,0,1,2.17,1c.46.31,1.15,1.12,1.6,1.35a11.87,11.87,0,0,0,2.12.66,7.57,7.57,0,0,1,1.57.86,8.28,8.28,0,0,0,1.86.94,12.94,12.94,0,0,1,3.69.86c1,.55,1.51,1.29,2.25,1.72s2.29,1.46,3.15,2a7.92,7.92,0,0,1,2.28,2.52c0,.31-.12.37.06.48s.85,1,1,1.06a2.33,2.33,0,0,1,.74.55c.32.34.95,1.17.95,1.17a9.2,9.2,0,0,1,.32-3.6,13.55,13.55,0,0,1,1.23-1.74,8,8,0,0,0,.77-1.77,19.82,19.82,0,0,0,.38-2,10.47,10.47,0,0,1,.23-2.55c.17-.65.52-.71.17-1.34a9.85,9.85,0,0,1-.68-1.91,7.19,7.19,0,0,1,.15-2.49,66.37,66.37,0,0,1,6.53-12.17c3.41-4.88,7-7.56,8.48-9.22a60.16,60.16,0,0,1,7.27-6.73,37.66,37.66,0,0,1,3.75-2.51c.43-.17.92,0,1.32-.31a6.3,6.3,0,0,1,1.63-1.26,27.81,27.81,0,0,1,5.24-1.33c1.08,0,.77.05.77.28s.17.26.4.26.31.17.45,0,.26-.26.52-.14.4.46.06.48c0,0,.91.38.11.69s.51.35.77.32.26.34.6.46.94.23,1.26.34.54.43,1.2.43a3.2,3.2,0,0,0,1.46-.31c.23-.14.94.06,1.74,0a16.13,16.13,0,0,1,2.38,0c.65,0,1.42.74,2.14.74s3.43.15,3.18,0a9.28,9.28,0,0,1-1.49-1.12c-.4-.45-.63-.54-.77-.77a5.13,5.13,0,0,1,1.46-3c1-.94,1.66-1.11,2.15-1s1,.63.91.4-.34-.37-.2-.6a2.82,2.82,0,0,1,1.83-.25c.57.11,1.43.92,1.4,1.12s-.17.2-.17.37.28.43,0,.37a.74.74,0,0,0-.69.28c-.14.18-.31.35-.51.2s-.4,0-.69-.14a3,3,0,0,1-.74-.55c-.06-.11-.23-.62-.34-.54s-.26.34-.43.43,0,.37,0,.54-.26.23-.09.35.85.2.83.43-.12.37,0,.37.46.11.46.37a.37.37,0,0,0,.49.34c.26-.05.34-.2.77-.11s.49.34.52.23.06-.37.28-.29a3.19,3.19,0,0,0,1.43.23c.32-.11.66-.56.84-.54s1.14,0,1.08-.43-.17-.48-.17-.68.54-.57.83-.63.69-.71.74-.91a5.16,5.16,0,0,1,.41-.91,2.84,2.84,0,0,1,1.05-.43c.26,0,.12-.12,0-.69a1.94,1.94,0,0,1,.18-1.2c.14-.37.14-.63.48-.8s.61-.17,1-.37.59.15,1,.17a2.43,2.43,0,0,0,1.86-.42,7,7,0,0,1,1.8-.94c.23-.09.66.14.88,0a11.87,11.87,0,0,1,3.38-.71c1.31,0,2.06-.31,2.43.09s.6.74.46.77a.14.14,0,0,0,0,.28c.23,0,.86-.11.75-.39s-.71-.58-.57-.72,1,0,1-.28-.6-.43-.54-.58a1.2,1.2,0,0,1,.68-.4c.26-.05.77-.11.66-.31s-.45-.29-.23-.51.26-.46.26-1a1.34,1.34,0,0,1,.32-.94c.11-.11,0-.54.14-.63s.54-.25.54-.14,0,.26.15.2a.41.41,0,0,0,.34-.43c0-.31.2-.14.29-.4s-.09-.48.06-.62a4.06,4.06,0,0,1,.63-.43c.2-.15.54,0,.4-.09s-.46-.4-.2-.46.43.29.34.32,0,.17.12.14a1.73,1.73,0,0,1,.88.2c.17.15.26.35.26.12s.28-.46.57-.6.37-.11.66-.26.54.2.63.15,0-.37.22-.4.15.23.44.14.22-.4.59-.46.49,0,.66-.34a.81.81,0,0,1,.58-.43c.26-.08.43-.2.28-.31a.35.35,0,0,1-.08-.52C212.39,125.72,212.45,125.34,212.13,125.43Z"/><path class="cls-1" d="M59.69,74.68c.14,0,.14-.76,0-.78s-.36.21-.69.23-1.19.48-.88.48S59.45,74.7,59.69,74.68Z"/><path class="cls-1" d="M55.94,74.48c-.12,0-.33.36-.55.5s-.54.43-.3.43.92,0,1.06-.17.38-.56.34-.68a2.63,2.63,0,0,0-.31-.41C56.11,74.25,56.06,74.46,55.94,74.48Z"/><path class="cls-1" d="M49.56,37.77c.17.09,0,.59,0,.78s.29.31.5.64.5.4.45.59.21.41.33.62.59.31.71.43.24.31.33.38a3.74,3.74,0,0,1,.62.47.68.68,0,0,0,.57.26,1,1,0,0,0,.62-.28,2.1,2.1,0,0,1,.94-.16c.22,0,.36-.5.5-.69s.34-.19.48-.5.19-.45.38-.5.26-.4.38-.61A4.62,4.62,0,0,0,56,37.47a14.71,14.71,0,0,0-.62-1.35c-.09-.22-.61-.31-.68-.39s-.15-.45-.24-.54-.26.14-.41.16-.8-.19-1.11-.19-.17-.35,0-.42-.17-.19-.38-.22a4.54,4.54,0,0,1-.88-.45c-.16-.07-.47.14-.55.31a2.64,2.64,0,0,1-.47.59c-.17.16-.31.14-.34.31s-.06.26-.4.35-.35.43-.4.67a1.63,1.63,0,0,0,.28.92c.17.26-.24.33-.33.33S49.4,37.67,49.56,37.77Z"/><path class="cls-1" d="M44.7,26.46c.24.16.15.35.15.47a.39.39,0,0,1-.27.31c-.11,0,.15.28.2.43s-.12.33-.15.54.12.31.15.4-.2.24-.27.41.36.83.4,1a8.18,8.18,0,0,1,.14,1.16c0,.24.31.52.53.74a1.67,1.67,0,0,1,.3,1.09c0,.42-.26.33-.26.61a.52.52,0,0,0,.47.5c.89,0,.62-.47.57-.61a1.22,1.22,0,0,1,.1-.74c.12-.16.12-.43.21-.64a.53.53,0,0,0,0-.57,1.52,1.52,0,0,1,0-.76c0-.16.26-.68.26-.88s-.14-1.23-.12-1.63.05-.64.08-.85a1.32,1.32,0,0,1,.23-.64c.08,0-.23-.31-.31-.45a7.46,7.46,0,0,1-.26-.84c0-.16-.33-.33-.52-.54s0,.45,0,.76-.14.33-.36.49-.85.05-1,.05-.4-.47-.4-.69-.28-.4-.38-.66S44,25,44,25.15s.17.31.19.52,0,.19-.16.36S44.47,26.29,44.7,26.46Z"/><path class="cls-1" d="M186.62,141.59c-.06.12-.23.25-.14.28a1.47,1.47,0,0,0,.67-.16C187.37,141.6,186.68,141.46,186.62,141.59Z"/><path class="cls-1" d="M189.5,139.89c-.16,0-.5,0-.75,0a1.29,1.29,0,0,0-.55.07s.11.2.3.28,0,.15,0,.23,0,.1.14.13a5,5,0,0,0,.52-.11c.17,0,.08-.24.2-.3a2.1,2.1,0,0,1,.64,0C190.21,140.19,189.65,139.9,189.5,139.89Z"/><path class="cls-1" d="M235.88,75.21a8.08,8.08,0,0,1-2.42.22,11.17,11.17,0,0,0-2.44.39c-.87.11-1.49-.75-2.82-1.28a.25.25,0,0,0-.12,0c-.21,0-.46-.19-.46-.32s-.25-.22-.4-.38a6,6,0,0,1-.47-1.18,7.31,7.31,0,0,0-.87-.35,1.4,1.4,0,0,1-.44-.61c-.08-.19-.41-.25-.48-.29s-.06-.35-.06-.46-.27.13-.49.21-.55.09-.79.16-.4.36-.64.65a1.5,1.5,0,0,1-.57.41,1.93,1.93,0,0,0-.76.92c-.18.48-.44,1.53-.58,1.74s-.18.54-.34.73-.19.38-.4.56a6.26,6.26,0,0,0-.57.79,5,5,0,0,1-.64.59c-.11.13.16.31.17.53s-.11.41-.12.67-.11.27-.2.43,0,.4-.22.56-.08.22-.18.52-.38.52-.62.88-.19.27-.46.44a1.08,1.08,0,0,0-.35.64c0,.09-.27.16-.43.19a11.82,11.82,0,0,0-1.19,1A15.15,15.15,0,0,0,214.26,85c-.2.2-.12.54-.2.87a7.56,7.56,0,0,1-.88,1.64,5,5,0,0,1-1.45,1.29c-.19.11-.12.27-.21.44s-.53.56-.67.82a2,2,0,0,0-.34.6c-.09.32-.49.46-.6.64s.11.73.15,1.27a2.24,2.24,0,0,1-.27,1.23c-.1.14-.26.14-.62.41s-.34.26-.61.27-.21.1-.46.29-.32,0-.42,0,.08.41,0,.68-.28.14-.64.37-.36.52-.49.63-.27.07-.45.16-.62.5-1,.72a1,1,0,0,0-.47.82.78.78,0,0,1-.57.59c-.39.08-.48,0-.61.27s-.45.29-.7.38-.08.5-.26.67a14.27,14.27,0,0,0-1.9,1.07c-.84.68-.9,1.84-1.11,2.1a1.65,1.65,0,0,1-1.07.43c-.38,0-.35.3-.46.56s.16.3.25.54a3.47,3.47,0,0,1,.28,1c0,.23.37,1,.37,1.22a5.56,5.56,0,0,1-.26,1,2.51,2.51,0,0,0,.1,1,3.64,3.64,0,0,0,.5.77c.07,0,.23-.16.41-.32s.89-.14,1.34-.33a2.74,2.74,0,0,1,1.16-.18,7.6,7.6,0,0,0,.91,0c.1,0,.08.61.09.75s.07-.4.1-.47.19.06.22.22a.57.57,0,0,1-.22.46c-.11.08,0,.06.11.18s-.08.15-.18.25,0-.24-.09-.14-.13.44-.29.7a3.09,3.09,0,0,0,0,1.49c.08.39.24.24.39.09a3,3,0,0,0,.24-1.31c0-.43.15-1.07.23-1.67a20.29,20.29,0,0,0,.32-2.5c0-.6.15-2,.15-2.42a2.65,2.65,0,0,1,.22-1.2,4.71,4.71,0,0,1,.52-1c.14-.12.17.12.22.17s.14-.13.27-.32.13-.41.32-.43.25-.06.48-.36.59-.83.73-.84a6.23,6.23,0,0,1,.78.11,4.13,4.13,0,0,0,1.07-.16,4.73,4.73,0,0,0,1.34-.54c.24-.14.64-.51.86-.51s.29,0,.42-.17,0-.18.22-.37,0-.4,0-1a3.53,3.53,0,0,1,.54-1.6c.29-.38.37-1,.61-1.31a1,1,0,0,1,.8-.4c.29,0,.3.1.35.28a.45.45,0,0,0,.28.32c.15.06.32-.13.42-.13s-.32-.39-.37-.45a3.13,3.13,0,0,1,0-.81,3.42,3.42,0,0,1,.37-.91c.13-.28.26-.32.34-.6s0-.34.14-.42.21-.33.3-.3.19,0,.27-.14-.1-.29-.17-.43.13-.56.24-.77a4.91,4.91,0,0,1,.54-.67c.12-.11.7-.71.79-.81s.5-.06.76-.06.32-.46.48-.7a1.13,1.13,0,0,1,.78-.33,2.16,2.16,0,0,0,.81-.29c.08-.11,0-.27.21-.3a2.3,2.3,0,0,1,.51.06c.11,0-.06-.09-.06-.19a.55.55,0,0,1,.2-.33c.1-.06,0-.13-.09-.16s-.08-.11,0-.19a1.16,1.16,0,0,1,.21-.27c.1-.13.07-.58.24-.83a14.29,14.29,0,0,1,1.73-1.81c.56-.46,1.22-.16,1.44-.18s.46-.28.62-.22a1.14,1.14,0,0,0,.78,0,5.79,5.79,0,0,1,1.36,0c.12,0,2.05-.19,2.28-.19s.44-.68.59-.7.16-.12.24-.22a9.9,9.9,0,0,0,1.58-2.26c0-.34,1.48-1.5,1.85-1.82s1.83-.12,2.58,0a1.32,1.32,0,0,0,1.27-.78,8,8,0,0,0,.78-2.67C238,73.88,236.41,75.07,235.88,75.21Z"/><path class="cls-1" d="M219.31,126.16c-.08,0-.24.22-.37.22a2.83,2.83,0,0,0-.5,0c-.12,0-.31.17-.09.28s.57.12.43.13-.24.11-.05.15.48-.07.48-.18,0-.33,0-.36.48-.31.38-.31A.55.55,0,0,0,219.31,126.16Z"/><path class="cls-1" d="M216.71,123.32c-.07,0-.25-.36-.25-.47s.38-.38.45-.38-.13-.11-.34-.17-.35.11-.45.27-.7.11-.92.11-.22-.42-.29-.53-.65,0-.9,0,0,.37.11.45.7,0,.94.11.14.37.14.56-.08.22-.22.24,0,.09,0,.09a.89.89,0,0,1-.07.21c-.05.09.1,0,.23-.1s0,.24.08.42.14,0,.22-.07.13-.41.27-.41.25.16.4.22a6,6,0,0,0,.94,0c.22,0-.16-.27-.23-.38S216.79,123.32,216.71,123.32Z"/><path class="cls-1" d="M222.43,123c-.07-.13-.14-.24-.27-.24s-.41,0-.4.13a1.45,1.45,0,0,1,.05.59c0,.07,0,.18,0,.21s-.19,0-.23,0-.37.3-.47.22,0-.49-.17-.47-.14,0-.11.11.17.43,0,.47-.11,0-.2,0a4,4,0,0,1-.3-.4.35.35,0,0,0-.18.3c0,.21,0,.37-.1.32s-.09-.16-.17-.08-.19.3-.14.4.31.06.28.14-.21.22,0,.22.54,0,.55-.17.08-.4.31-.45a1.16,1.16,0,0,1,.32,0c.12,0,.14-.11.17,0s.29.11.19.16,0,.22.13,0,.16-.14.11-.21-.14-.14-.06-.19.24-.08.16-.14-.08-.1.08-.1.14-.14.28-.14.39-.08.34-.16S222.51,123.16,222.43,123Z"/><path class="cls-1" d="M224.9,118.6c0-.08-.45-.07-.72-.23s-.4-.39-.5-.44-.24,0-.35.12a1.37,1.37,0,0,1-.7.27c-.25,0-.32.15-.52.27s-.64.19-.84.32-.42.18-.27.21a1.47,1.47,0,0,1,.51.24c.17.11.23.62.29.75a6.64,6.64,0,0,0,.72.64c.22.2.08.23.08.41s.15.28.25.44,0,.53.09.56c.26.07.79-.31,1-.5a7.24,7.24,0,0,1,1.18-.5,3.73,3.73,0,0,0,.45-.63c0-.07-.24-.18-.48-.31s.13-.62.22-.75.27-.38.4-.51a1.57,1.57,0,0,0,.32-.33C226.07,118.55,224.89,118.68,224.9,118.6Z"/><path class="cls-1" d="M224.44,124.22c-.1,0,0,.13.05.13s.27-.42.19-.39S224.54,124.2,224.44,124.22Z"/><path class="cls-1" d="M224.18,124.54c-.11,0-.28.11,0,.11S224.3,124.52,224.18,124.54Z"/><path class="cls-1" d="M231.2,114.31c-.08,0-.11-.12,0-.29s0-.41,0-.39-.62.22-.72,0-.06-.29-.24-.31-.3,0-.32-.14-.07-.16-.13-.11a.19.19,0,0,0-.08.21c0,.11.15.23.05.28a1.44,1.44,0,0,0-.45.32c0,.08.12.16-.19.21s-.69-.08-.72,0,0,.26.23.26.7.2.91.14.33-.18.48-.16a3.45,3.45,0,0,0,.73.23C231.14,114.62,231.61,114.53,231.2,114.31Z"/></svg>