<svg id="地図" xmlns="http://www.w3.org/2000/svg" viewBox="0 0 240 240"><defs><style>.cls-1{fill:#f2f2f2;}</style></defs><path id="_JP46" data-name="@JP46" class="cls-1" d="M91.72,9.2c-.7-1.36-.14-1.22,0-1.76s.82-.68-1-1.52-6.44-.4-5.49.13,1.65.14,1,.55-1.79.15-2.2.68a10.6,10.6,0,0,0-.83,3.83c0,1-1.37,2.48,0,1.93s1.51-.95,2.05-.42,3.16,2.2,2.34,1.11-1.51-1.38-.28-1.79A28.71,28.71,0,0,0,91.72,9.2Z"/><path id="_JP46-2" data-name="@JP46" class="cls-1" d="M75.39,17.55c-.83-.25-1.16-2.07-.62-2s.83.69,1.11.22A9.46,9.46,0,0,1,77,13.66c.69-.84.69-1,1.24-1.73s.82-1.55.82-.88.14,2.19-.35,2.4a1.6,1.6,0,0,0-.89,1.44C77.79,15.57,76.49,17.88,75.39,17.55Z"/><path id="_JP46-3" data-name="@JP46" class="cls-1" d="M80.12,15.23c-.52.11-.27,1.42,0,1.92s.54,1,0,1.37-1.43,1.29-.89,1.57,2.12,1.84,1.92,1.24-.89-1.37-.41-1.17.75,1.65,1.09,1.57a1.93,1.93,0,0,0,1-1.14c0-.3-.34-.56-.76-.77s.55-.5.56-.9-.1-.42-.63-.62-.26-.47-.67-1.22S81,15,80.12,15.23Z"/><path id="_JP46-4" data-name="@JP46" class="cls-1" d="M41.52,81.07c-.4-.14-1.85.81-3.16.33s-1.91-.83-1.16.48,1.57,3.69.68,3.77a4.55,4.55,0,0,1-2.8-1,4.6,4.6,0,0,0-1.79-.77,1.93,1.93,0,0,1-1.17-1.29c0-.36-.41-.56-1.23-1.52S28.71,78.5,28,78.71a5,5,0,0,0-2.47,1.91c-.34.76-1.92,1.44-2.12,2.06s.26,1.77.47,2.66,2,2.07,2.05,1.31S25.61,85,26,84.46s1.59-2.81,1.11-1.91-.08.88.2,1,.48.4.2.81-1,.82-.34,1.44,1.3.69.95,1-.2,1.31.14,1.24,1.1-1.36,1.65-.68-.76,1.58-.15,2.39,2,.82,2.06,1.1-.89,2.65.06,2.13.69-1.72,2-1.71a4.69,4.69,0,0,0,2.68-.63,2.9,2.9,0,0,1,1.85-.41c1,0,2.26-.39,2-1.77s-1.23-1.57-1.09-2.26,1.64-1.36,1.17-2.24-.83-1-.55-1.38S41.93,81.2,41.52,81.07Z"/><path id="_JP46-5" data-name="@JP46" class="cls-1" d="M26.09,90.62c-1.37-.09-2.13-.07-2.27.43s-.08,2-.48,2.31-.82.76-.55.83.62.19.62.67,0,2.4.33,2.54,1.17,1.65,1.38.83.34-1.32.47-1.77-.27-1.11.15-1.51,2.32-1.25,1.91-1.46-1.64-.66-1.16-.88S27.73,90.77,26.09,90.62Z"/><path id="_JP46-6" data-name="@JP46" class="cls-1" d="M27,89.87c-.63-.15-1.29-.28-.88-.48s.89-1.15,1.16-.9S27.59,90,27,89.87Z"/><path id="_JP46-7" data-name="@JP46" class="cls-1" d="M20.59,96.16a.49.49,0,0,1-.89,0c-.47-.7-1.29-1.32-1.44-1.11s-.4.36-.2.83.61,1.36.2,1.36-.89.56-.41.91,1.23,1.08,1,1.5-1,1.49-1.44,1.5-.21.82.4,1.31,1.24.81,1.31-.07.21-1.93.82-2.06,1.71.75,1.24,0a9.91,9.91,0,0,1-.82-1.72c-.21-.57-.83-.91-.21-1.32S21.48,96.17,20.59,96.16Z"/><path id="_JP46-8" data-name="@JP46" class="cls-1" d="M17.23,104c-.76.06-1.58-.61-1.72-.21a1.3,1.3,0,0,1-.82.9c-.41.13-.68-.22-1.23-.12s-3.85,2.16-4.26,2.23a20.06,20.06,0,0,0-2.46,1.17c-.28.13-.35.74-.69,1.3a15.25,15.25,0,0,0-1.17,1.57c-.41.77-1,4.74-1.45,5.28s.2,1.65-1.1,1.63a2.52,2.52,0,0,0-2.33,2,5.84,5.84,0,0,0,1.37,2.6c.21,0,2.47,1,2.47,1.38s1.57,1.23,1.85.9-.21-1.85.75-1.87.95,1.71,1.51,1.73-.28-1,.07-1.45.68-.26,1.3-1.16.34-1.57.68-2,2.47-.28,1.45-1-1.71.2-1.79-.77.15-2.33.77-2.81.76-1.23,1.37-1.44,1.78-.53,1.37-.94-1.64-1.45-1.5-1.91S14,107.25,14,108s-.07,1.45,1,1a3.86,3.86,0,0,0,1.91-2.12C17.36,106.15,18.12,103.91,17.23,104Z"/><path id="_JP46-9" data-name="@JP46" class="cls-1" d="M230.49,144.06c1.24-1.37-.8-7.12-1.08-8.49s.82-1.8,1.65-2.88-.82-2.46-1.5-3.15a8.5,8.5,0,0,1-1.37-3.7c-.13-1-1.36-2.19-2.32-3.57s-.69-.27-2.75,1-2.06,1.91-4.11.4-5.34-4.65-6.16-4.65-2.88,2.88-3.29,3.82-1.51-2.06-1.64-3.14-2.19-1.25-2.6-2.34a5.32,5.32,0,0,1,.69-3.71c.41-.52-1.65-1.92-2.2-3.57s.15-6.57.15-6.57a34.57,34.57,0,0,1-4.24-.55c-2.06-.42-1.79-1.79-1.92-2.48s1.1-.68,1.65-1.61-4.25-2.21-6.3-2.48-2.47-.16-3.83-1.26-1.38-1.5-2.2-1.36-3.7-.7-4.25-1.37-.41-1.38-.13-2.89.55-1,.14-1.79.14-2,1-4.23,1.75-5.6.69-7.07-2.12-4.45-4.24-5.94-3.82-.43-5.73-.87a3.18,3.18,0,0,1-2.76-2.33A6.37,6.37,0,0,0,169.47,63c-2.11-1.89-.84-4.26-1.9-7s-2.75-2.36-4-4.47-3.82-2.13-5.3-2.35-1.28-.41-1.49-2.33a2.51,2.51,0,0,1,1.49-3c.85-.43,1-3.23,1-3.23a6.28,6.28,0,0,1-2.47-.94c-1.78-1-3.56-3.15-4.93-4.25s-2.46-2.49-2.46-3.57-3.84-1-4.8-1.24-1.09-2.89-1.36-4.53-1.5-.81-2.6-1-.14.7.13,2.47-1.93,4.11-4.25,4.1a5.11,5.11,0,0,0-4.39,1.92c-.69,1-2.88.54-3.84.13s-1.37.41-2.88,1-.82-.56-2-1.09-.69.27-.15,1.62-1.36,1.38-3.69,3-5.5-.44-6.59-.84-1.37-.82-2.32-3-.82-2.46-2.87-4.11c-1.15-.92-1.7-1.42-2.3-1.89-.4.82,0,1.68-.1,2.3s-.82,1-1.13,1.64-.1,2.68-.62,3.09a11.7,11.7,0,0,0-1.24,1.22s.1.52-.51.32-.41-.64-1-.21-2.37,1.63-3,1.94-2.36.92-3.19.61-2-1.23-2-1.75.21-1.66-.41-1.84-1.43.19-2,.19-1.33-.5-2-.51-4.52-.54-5.66.3S80,38.1,78.89,38.51s-1.44-.11-1.34-2.46,1.35-2.16,1.76-3,1.23-1,2.06-1.45,1.54-.41,1.13-1.12-.31-2.15-1.13-2.06-1.34.94-1.75.5-.92-3.28-.09-3.87,1.33-.73,1.33-1.26-1-.51-1.53-1.21S79,20.73,78.1,19.81s-.52-1.74-1.24-1.75-1.13.2-1.13.93.21,1.85-.52.92,0-1.85-.61-1.85-.72.82-.72,1.33-.82.83-.3,1.75,1,2.37.6,1.95-2.46-3.28-3.38-3.19-.51.82-1.66.72S67,20.31,67,20.93s1.74,1.53,1.74,1.53a20,20,0,0,0-2.87,1.86c-.62.61-1.55,1.62-.93,1.94s.72.31,1,.73.41-.12.61.71S68,30.69,68,32s-.41,3.6.31,4.43,2.67,2.14,3.28,2.87a9.77,9.77,0,0,0,2.78,2.06c.61.2,2.36-.83,2.46.11s0,1.84.1,2.27S79,45.4,78.78,45.09s0-2.36.41-1.33,1.64.52,2.06,1.24a6.76,6.76,0,0,1,1.12,2.35,7.19,7.19,0,0,1-.92,2.77c-.62,1.24-1.75,2.49-1.76,3s.1,1.64-.52,1.86-1.13.42-1,1.13A8.53,8.53,0,0,1,77.83,59c-.2.63-1.34,1-.51,1.14s3.08-.12,3.7.39-.21,1.34.2,2.28,1.12,1.86,1.12,2.89,1.34,5,1.54,6.57a14,14,0,0,1-.11,4.72,21.09,21.09,0,0,1-1,3.27c-.31.43-.82.53-1.14.94s-.2,1.34-.72,1.54-.62.4-.62.71a7.57,7.57,0,0,0,2.36,3.2c1.24.82-2.36-.73-2.77-.64s-.52,3-1.65,3.81-1.54,1.43-1.55,1.85.83,1.24.11,2-1.45,1.44-.63,2.35.93.72,1.44,1.66,1.54,1.94,1.54,3.28-.51,2.16.2,2.16.83-2.29,2.06-1.43,2.37.3,3.08,1.22.1,1.66,1.44,2.08a3,3,0,0,1,2.26,2c.21.82,1.12,1,1.44,1.13s.41.2.3,1-.82.61.31,1,2,.41,3,1.75a10.06,10.06,0,0,1,1.53,3c.52,1.33.41,3.08,1.44,3.17a2.16,2.16,0,0,1,1.64,1c1.85,2.26,3.28,9.65,3.28,11.51s.19,11.11-4.15,19.91-7.82,11.12-10.29,11.93-4.12,1.84-4.74,1-2.46-1.66-2.45-2.49,1-2.24,0-1.63-1.85,1.85-2.47,1-2.26-3.47-2.88-3.28-1.64,3.49-2.87,3.69-1-1-2.47-.61-2.68,3.48-1.65,2.47.62-2.47,2.26-1.23,3.91,2.88,3.9,4.31-1,1.64.2,2.05,2.06-.62,2.47,1,1,2.47,2,2.47a2.54,2.54,0,0,1,2.67,1.65c.62,1.44,2.46,3.49.82,3.5s-2.26-.42-2.88,0-2.47,1.84-1.44,2.05,2.26,0,3.49.22a3.73,3.73,0,0,0,2.27-.41s-.21.2.41,1,1.44.19,1.23,1-2.88,1.87-2.88,1.87-2.06,4.31-.42,3.08,2.27-2.67,2.27-1.66.81,3.82.09,4.42-1.44,2.68-.2,2.26,2.25-.91,3.49-.6,2.67-.11,3.9.51,1.76,1.55,2,.42-.51-3.18.62-3.48,2.78.82,3.9,1.53a8.37,8.37,0,0,0,4.73,1.14c2.16,0,6.16,1,9.45,1s4-1.11,7.31-.19,4.82,3.4,6.57,4.94,2.15,3.92,1.73,4.53-1,3.29-.41,4,2.06,2.36,4,1.22,2.77-2.25,3.29-2.14a10.73,10.73,0,0,1,3.69,3c.72,1.11,1.34,1.52,1.44,1s1.14-1.32.42-1.64-1.75.1-1-.72,1-2.36,3.19-2.36,3.19.31,4.11-1,2.37-1.12,1.54-2.45-2.25-1.36-1.12-2,3.7,0,3.08-.92-2.15-3-1.22-4.43,4.12-3.28,2.88-3.9-1.34-1.34-2.26-1.13-3.8.83-4.73-.51-.51-1.76-1.84-2.48a6.14,6.14,0,0,1-2.16-1.55c-.31-.39-2.88-1.33-3.6-2.37s-1.73-6.26-2.45-8.94.73-3.07.11-3.79-2-1.13-2.36-2a17,17,0,0,1-1.74-4.21c-.41-1.87-2-6.18-2-7.51s2.58-.09,2.27-.71.72-.1-.31-.61-2.46-1.45-1.95-2,2.67-.6,2.77-1.43.32-2.67.32-2.67-1.85-.31-1.75-.72-.82-.2.11-.4,1.74.09,1.85-.33a32.73,32.73,0,0,1,.82-4.19,9.4,9.4,0,0,1,2.07-3,6.43,6.43,0,0,0,1.85-3.61c0-1.23-.1-3.6,0-4.52s1.34-.71,1.34-1.43-.62-1.54.41-2.16,3.8-1.13,4.11-2.35.31-2.48.73-3.09a3,3,0,0,0,.82-2.16,39.19,39.19,0,0,1-.1-4.72c.22-1.22-.2-2.89.94-3.7s.92-1.54,1.95-2.47a7.27,7.27,0,0,1,4.32-1.43,30.87,30.87,0,0,1,5.14.51,19.52,19.52,0,0,1,4.11,2c.51.31-.1,1.34.61,1.55s-.3-.63,1.65.1a15.67,15.67,0,0,0,4.83,1.34c1.34,0,3.09.31,3.18.71s0,1.76.51,1.76,2,1.64,2.16,2.77,1.64,3.19.81,3.59a7.13,7.13,0,0,0-2.46,2.26c-.82,1.13-1.14,3.29-1.55,4.22s-1.75.21-1.64,1.75.92,1.53-.12,2.87-1.85,2.05-2.46,2.77-.52.92-1.85,1-4.12.5-5.05.1-1.84-.82-1.12-1.33-.1-.84.41-1.46,1.13-.52.52-1.64a2.48,2.48,0,0,1-.41-1.85,3.47,3.47,0,0,0-.92-2.16c-.82-1-1.74-2.26-2.36-2.25s-1,.49-1.65,0-.31-.73-1.23-.61-2.88,1-3.6,1.11-3.7-.11-4.32.5a17.86,17.86,0,0,0-2.06,3.2c-.41.81-1.85,1.21-1.85,2.25s.2.83.82,1.64,2.26,2,2.67,2.67,1.43,3.51,3.08,3.21a17.16,17.16,0,0,1,3.39-.23c1.85-.08,2.77.63,3.6,0a2.12,2.12,0,0,1,2.36-.3c.41.4.51,2.58.09,2.76a4.26,4.26,0,0,0-1.12,2.89c0,1.21-.52,1.14-.42,2.07s.93,1,.1,2.06.21,1.21.2,2.44-.11,3,.62,3.9,1.84,1.24,3.59,1.87.92,0,3,2.68,1.22,3.08,2.05,4.32,1.44,1.43,2,3.27,1.43,2.58,1.64,3.71,1.74,2.56,1.84,3.6,1.43,3.69.72,4.71a5.53,5.53,0,0,0-1.14,3.49,16.55,16.55,0,0,1-.32,5.37c-.52,1.84-.1,4.29-.62,4.51s-1.75.81-1.95,1.33-1.35,3.69-1.35,3.69a1.11,1.11,0,0,0-1.13,1.13c0,1.14-.31,2.69.31,3a3.31,3.31,0,0,1,1.33,2.06c0,.5-1.55,1.83-1.75,3.28a30,30,0,0,1-2.07,6.06c-.41.6-1.13,2.05-2.16,1.94s-1.95-.1-2.57.72-3.39,2.66-4,3.58-1.55,1.13-2.17,1.65-2.36,2.37-1.74,2.47.72.62,1.64.83,1.64.51,1.44,1.12a6.52,6.52,0,0,0-.21,2.15,23,23,0,0,1,0,2.79,11.23,11.23,0,0,1-1.64,2.87c-.83,1.11-1.14,2.66-.52,2.45s.1-.71.71-1.14,1-1,1.65-.5,1.65-.39,1.65-.39a10,10,0,0,1,.52-1.85,8.09,8.09,0,0,1,1.64-1.24c.72-.52,1.24.83,1.75.12s-.21-1.77.41-2.47,1.44-.64,2.47-1.23a7.57,7.57,0,0,0,2.06-1.43c.51-.63.93-.52,1.13-.12s.2,1.12.92.62A13.77,13.77,0,0,1,167,223c1-.43,1.65-1.76,2.27-2.26s1.44-.11,1.95-.41.93-1.44,1.75-1.44,5.54.4,6.67-.2,5.67-3.89,6.59-4a3.19,3.19,0,0,0,2.47-1.32c.42-.84,1.43-.74,2.37-1s6.17-2.75,6.07-4.11-1.54-2.56-.51-3.08,3.59.22,2.78-.51-1.75-1.43-1.13-1.94,2.57-1,3-1.66a4,4,0,0,0,1.24-2.66c0-1.44-.41-2.46.41-3s2.26.32,3.5-.2,3.91-.29,4.63-1,1.34-2.77,2.47-3.6,3.08-1,3.49-2a3.44,3.44,0,0,1,1.65-1.43s1.34-.93,1.13-1.87-.41-1.33-.71-1a4.49,4.49,0,0,1-2,1.44c-.92.21-3.19,1.33-4.11.4s-1.54-2.06-.72-2.47,2-1,2.16-1.54,1.65-1.66,1.86-2.57.21-3.19-.2-3.18a19.73,19.73,0,0,1-2.37-.52c-.82-.21-1.85-1-3-1.13s-2.47-1.44-3.5-2-3.39-.82-4.11-1.72.11-3.1.63-4.63,2.47-6.57,4-8.11a50.94,50.94,0,0,1,5.35-4.11c.92-.73,1.64.42,2-.41a4.62,4.62,0,0,1,1.65-2c.51-.18,2.16-.71,2.78.21s.61,1.44,1.33,1.44a15.12,15.12,0,0,1,3,.58c.5-2.08,1.46-5.78,2.42-7.12C227.75,145,229.26,145.44,230.49,144.06Z"/></svg>