<svg id="レイヤー_1" data-name="レイヤー 1" xmlns="http://www.w3.org/2000/svg" viewBox="0 0 120 120"><defs><style>.cls-1{fill:#121416;}</style></defs><path class="cls-1" d="M60.05,9.68c5.7,0,17,0,17,3,0,3.8-2.92,8.49-4.82,13.17V39.07c.89,4.56,8.64,21,9.12,34,.52,13.93-1,31.17-2.53,35-6.34,3.92-36.36,2-40,.5a186.49,186.49,0,0,1,3-43.33c.76-4.31,8-18.9,8.36-21.41.89-6.08-1-19.39-1-19.39-2.66-4.69-5.32-7.85-5.32-10.64C43.83,10.31,54.21,9.68,60.05,9.68Zm-8,5.63c0,1.54,4.08,2.6,8.52,2.6s7.92-1.48,7.92-2.6-5.68-1.54-8.16-1.54C57.34,13.77,52.08,14.42,52.08,15.31Z"/></svg>