<svg id="地図" xmlns="http://www.w3.org/2000/svg" viewBox="0 0 240 240"><defs><style>.cls-1{fill:#f2f2f2;}</style></defs><path id="_JP11" data-name="@JP11" class="cls-1" d="M190.7,76.84c-.32-.12-1-1.82-2.15-1.82s-.86,1.24-1.24.57-1-2-1.58-1.5-.39,3.52-1.19,3.47-2.86-.46-3.52.31-.57,2.35-1.17,2a5.09,5.09,0,0,1-2-1.55A4.9,4.9,0,0,0,175.54,76c-1.46-.72-2.29-1.48-3.45-1s-5,1.81-7.06,2.54S161.54,79,159.59,79s-7.91.25-9.35,0-5.34-2.29-7.83-4.58S141,71.56,138.24,71s-2.55-2.09-4.05-3.53-5-3.53-5.64-3.32-1,2.13-2.14,2.13-2.55,1-2.36,1.46.18,1.63-.06,1.62-3,.3-3.73-.6-.57-3.2-1.06-2.95-1.36,1.71-3.45.79-2.81-1.9-3.07-1.38.25,2.17-1.1,1.63a7.8,7.8,0,0,0-2.77-.83c-.76,0-2.59-.15-3.06-.8s-1.63-3.2-2.32-2.55-.8.43-2-.13-1.77-.34-3.66-1.13-3.14-2.16-4.26-2.28-.31.78-3,.17-3.09-1.76-4-1S84.93,61,83.66,61.73s-1.23,1.05-1.24,1.68a6.82,6.82,0,0,1-1.32,3c-.64.91-3.65,7.24-4.76,8.74s-2.5,2.88-2.77,4.44S72,81,72.79,83.16s1.44,4.54.44,5.22S71,88,70.51,89.21s-.74,5.89-1.71,5.9-2-1.85-4-1.61a10.9,10.9,0,0,0-5.36,3.09c-.8,1-1.32.89-3.41-.52s-1.89-1.59-2.41.05a28.34,28.34,0,0,1-1.51,4.42c-.61,1-3.08,3.2-4.24,2.81s-1.72-.85-3.35-.59-3.27,1.31-5.62,2.53-4,2.48-5,2.81a2.15,2.15,0,0,0-1.5,2,7.44,7.44,0,0,1-2.25,3.44c-.79.52-2.42,2.29-4.45,3s-3.33,1.16-4.06.5a6.31,6.31,0,0,0-4.47-1c-1.25.39-1.32.52-2.12,2.08s-1.5,3.87-3,5.36-1.44,2.74-2.43,2.8-1.77-.41-2.22,1.71-1.48,3.73.1,5S9,134.61,10,136s2.69,2.5,1.91,4.22a11.23,11.23,0,0,0-1.37,5.67l-.09.45a40.69,40.69,0,0,1,4.44,1.47c2.09.68,4.46.67,6.36,1.82s.86,2.44,1.05,3.93.35.85,1.39,1.39a7.09,7.09,0,0,1,2.26,1.39,1.4,1.4,0,0,0,1.91.36c.61-.46,3.39-.27,4.7-.34s1.76.44,2.71,1.21a19.73,19.73,0,0,1,2.61,2.69c.62.8,1.4.36,2.09.54s.42,1.4.54,1.73,1.11-.14,1.46-.94S42,162,44,160s1.41,0,2.79.62S51,159.19,51,159.19a3.75,3.75,0,0,1,.92-2.84c1.14-1.22,1.3-2.28,2.86-3.2s2.56-1.64,3-1.26a3.83,3.83,0,0,0,2.7.65,2.8,2.8,0,0,0,2-1.57c.44-1,.08-1.7,1.85-1.73s3,.17,4.06,1.23a36.16,36.16,0,0,0,4.54,3.28c.57.35,2.36,1.41,3,1.07s-.32-2,1.2-.84a10.83,10.83,0,0,0,5.67,2.56c3.07.5,3.92-.37,5.62.15a10.13,10.13,0,0,1,4.26,2.4,5.43,5.43,0,0,0,3.7,1.95c1.56.07,3,.92,3.9.15s2.07-1.37,2.44-.88.7.88,2.12,1.53,1.07-.43,2.22-.15.14,1.33,1.85.85,2.62.29,3.62-.27,4-.79,4.83-.14.43.72,1.29,1.71.41,2.46,1.13,2.06,1.62-1.06,2,.09-.71,3.61.87,4.9,2.46,2.43,3.25,2.06,2.34-.73,2.47-.44a9.64,9.64,0,0,0,2.93.86c.79.16.37,1.5.34,1.78s1.8.71,1.8.71,1.12,1.21.63,1.71-.72,2.2.38,1.93,2.31.44,3.66-.34,2.22-.52,3.57-.29,2.49-.44,4.11-.49,1.29.63,4.13-.57,3.58-1.77,4.28-2,4.19-.51,5.41-1.16,3.12-1.84,3.4-2.82,1.39-2.93,1.88-2.2,1.05,2.29.49,2.69-1.79,1.21-1.15,1.43,1.2.08.87,1.14-.8,2.27-2.08,2.49-4.34,2.06-2.78,1.77a24.45,24.45,0,0,0,4.06-1c.85-.35,1.84-1.76,1.71-.56s-1.43,4.68-.3,4.34a6.91,6.91,0,0,0,2.85-1.27c2.13-1.3,3.56-3.85,5.19-4s2,.78,2,.78-1.79.57-.59.63,2.78.65,3.49.58.88.36,1.37-.7-.44-1.63,1.56-3.2,1.85-3.19,3.7-3.55,4,.22,5.56,0,3.76.94,4.2,1.15,4.6,1.77,6,1.71-.21,2.26,1.36,1.49,2.78-1.35,3.41-2.26,1.92-1.22.51-2.07-3.14-.65-2.43-1.57,4.2-2.28,4.76-1.85,1.66,1.93,2.28,1.93,1.51.5,2.71-.06,2.13.34,3.33-.56,1.86-1.29,1.44-.28-2.16,3.84-.21,4,2-1.77,2.84-1.19,3,2.48,3.41,2,4.55-1.77,4-.86-2.2,2.82-.71,2.84,2.19.54,3-.27c0-.37-.08-.77-.15-1.28-.35-2.44.7-4.2-.17-8s1.59-6.23,2.63-7.28-2.42-8-2.76-9.58-3.49-7.85-5.06-8.56-4.86-6.62-6.08-9.06-.17-3-1.93-4.53-1-7.49-.66-9.93-3.5-5.75-6.1-9.06c-2.27-2.9-1.64-4.84-1.44-5.29-.13.3-1.25,2.66-2.38,2.5s-5.23-1.93-6.11-2.12-1.38-4.85-2.08-6.26-5.2-9.94-5.56-12-.5-9-.5-9S191,77,190.7,76.84Z"/></svg>