<svg id="地図" xmlns="http://www.w3.org/2000/svg" viewBox="0 0 240 240"><defs><style>.cls-1{fill:#f2f2f2;}</style></defs><path id="_JP04" data-name="@JP04" class="cls-1" d="M138,127.13l-1.57,1.55s-.51-.26-.52-.58,0-1.07.21-1a3.12,3.12,0,0,0,1.07.22C137.68,127.3,137.9,126.93,138,127.13Z"/><path id="_JP04-2" data-name="@JP04" class="cls-1" d="M136,129.29c.33.06-.37-.59-.91-.92s-2.25,0-1.44.1S135.15,129.11,136,129.29Z"/><path id="_JP04-3" data-name="@JP04" class="cls-1" d="M177,135.18c.37-.28-1-.6-1-1.08s-.54-2.62-.71-2.4a7.79,7.79,0,0,0-1.06,1.92c0,.33.47.91.24,1s-.89.38-.9.8.64,1.29,1,1S176.53,135.49,177,135.18Z"/><path id="_JP04-4" data-name="@JP04" class="cls-1" d="M181.15,136.64c-.43-.13-.23,1.5-.5,1.59s-.37.13-.22.45a3,3,0,0,0,1.35.9c.37.11.16,1,.47,1.5a2.46,2.46,0,0,0,1.94.94c.86,0,1.33.62,1.34,0a3.59,3.59,0,0,0-.86-1.93c-.37-.37-.21-1.14-.64-1.57a10.12,10.12,0,0,1-.91-1.28c-.37-.48-.91-.91-1.08-.85S181.84,136.85,181.15,136.64Z"/><path id="_JP04-5" data-name="@JP04" class="cls-1" d="M195.4,138.7c-.82,0-1.56-1.23-1.86-1.57s-1.4-1.44-1.41-1.93-.21-1.34,0-1.77.38-.42.81-.8,1.19-1,1.6-.63-.09,1.07.59,1.11,1.83.27,1.73.86a21.12,21.12,0,0,0-.71,2.05c0,.47.44,1.5.37,1.71A1.14,1.14,0,0,1,195.4,138.7Z"/><path id="_JP04-6" data-name="@JP04" class="cls-1" d="M198.33,118.48c-.26.1-1.13.27-1.18-.11s.22-1.19.48-1S198.6,118.37,198.33,118.48Z"/><path id="_JP04-7" data-name="@JP04" class="cls-1" d="M189.65,111.81c-.38,0-.54-.58-1-.6s-.81.13-.75-.3a7.26,7.26,0,0,0,0-2.46c-.22-.32-.44-.81-.11-.91s.91.26,1,.63.38.7.91.91.31.92.37,1.3S190,111.87,189.65,111.81Z"/><path id="_JP04-8" data-name="@JP04" class="cls-1" d="M206.55,37.89c-.44-.07-1.05-1.21-1.56-2s.44-1.21.18-2-.7-.27-1.12-.61-.7-.77-.26-1.12.17-1.54.18-2.33-.36-1.2-.18-1.55-.18-.88-.17-1.65c0-.16,0-.34,0-.5-1.15-.56-3.18-1.73-4-2.28a4.68,4.68,0,0,0-2.65-.69,2.52,2.52,0,0,1-1.55-.58,12.88,12.88,0,0,0-3.51-1c-1-.2-2.08.5-2.59.65s-.75-.75-1-1.09-2.54-.05-3.15.33-.59,1.55-.86,2.35.69,3,.75,4.35a4.57,4.57,0,0,1-.67,3.17c-.76,1.21.75,1.7,1,2.69a2.34,2.34,0,0,1-1,2.27l-2.15,2c-.56.52-.17,1.31-.65,1.6a5.07,5.07,0,0,0-1.8,1.56c-.34.66,1.5,2.46,1.88,2.79s.33.61-.43,1.31a7.1,7.1,0,0,0-1.42,2.59c-.28.78.72,2.23.76,3.13s-.71.61-1.43.61-1.27-.06-1.54.2.33.89.28,1.41a4.77,4.77,0,0,0,0,2.08c.24.86-.14.9-.81,1.09s-1,1.12-1.51,1.32-.34-1.37,0-1.71-.62-.47-1.38-.65-.61-.72-1.12-1.39a2,2,0,0,0-1.89-.46c-.52,0-.48-.16-.72-.54a12.78,12.78,0,0,0-2.58-1.6c-.86-.47-2,.7-2.46.81s-.25-.43-.72-.86-1.41-1.46-2.27-1.6-.66,3.48-1.14,4.44-1.32.08-1.89-.39-.24.19-.69.43-.64.08-1.15,0-.75,1.08-1.43,2.21-.33,1.9-.75,2.87-2.7,1.23-3.51,1.76.43.39.72.71-2.13-.15-2.69-.53-.75-2-.71-2.6-2.37-1.84-2.78-2.12-.43-.06-1.28.22-.86-.38-1.6-.51a10.38,10.38,0,0,1-2.61-.81c-1.14-.52.1-1.38.11-2a17.06,17.06,0,0,0-.54-2.13c0-.34-.17-.23-.45,0s-1.09-.29-1.38-1.08-.43-.84-.66-.73-.8,0-1.32-.09a2.84,2.84,0,0,1-1.47-.75c-.19-.28,1.42-1.57,1.93-1.23s1.06,0,1.48,0,1.46-1.74,1.79-2a5.68,5.68,0,0,0,1.1-2.5,2.52,2.52,0,0,0-1.14-2,9.19,9.19,0,0,0-2.54-.52,2.26,2.26,0,0,1-1.7-.28,11.65,11.65,0,0,1-1.14-1,15.4,15.4,0,0,0-2,1.38c-.61.42-2.55-.38-3.3-.39s-.8.38-1,.85-2.14-1-2.89-1.42-1.1.56-1.48.95-.42,0-.89-.06-.42.1-1.32.66-1.56-1.17-2-2.36A5.82,5.82,0,0,0,117.64,36c-.86-.37-2.41-1.6-3.12-1.93s-.8.38-1.14.66-.56-.75-1.32-1.57-1.13-.47-1.89-.23a2.47,2.47,0,0,1-2.31-.53,10.76,10.76,0,0,0-2.74-2.23c-1-.32-1.79-.47-1.84-1.07S100.87,27,98.93,27a13.59,13.59,0,0,0-4.12.76,2.64,2.64,0,0,1-2.21-.15c-.71-.19-1.38.74-2.13,1.22a4.91,4.91,0,0,0-1.65,1.51c-.47.66-.19,1.13-.62,1.78a3.45,3.45,0,0,1-1.51,1.57c-.86.42-.62-.06-1.09-.1s-.75.38-2.08,1.09-.9,1.08-1.43,2.45S80.86,38.33,80,38.84s-1.88.61-2.08.95-.9-.3-1.46-.67a3.83,3.83,0,0,0-2.13-.61,6.62,6.62,0,0,0-1.75,1.08c-.32.29-.86-.38-.94-.09a2,2,0,0,1-1.37,1c-.57,0-.53.32-.81.73s-.75.2-1.51.16-.8-.63-.95-1-.93-.62-.89-1.1A2.66,2.66,0,0,1,65.56,41a2.23,2.23,0,0,0-.35,2.19c.24.52,1.21.63,1.91,1.15A35.47,35.47,0,0,1,69.59,47c.4.42,1.32.24,1.89.87a7.89,7.89,0,0,1,1.16,1.85c.29.51-.36,1.66-.35,2.47a11.15,11.15,0,0,0,1,3.45,7.26,7.26,0,0,0,2.3,1.95c.33.25,1.15-.33,1.9-.22s.92.69.93,1.4-1,1-1.45,1.71-.52,1.56-.87,2.2-.06.79-.75,1.77-1.38,1.21-1.79,1.8.29,1.7.18,2.52,1.66.63,1.89.69,0,1.55-.06,2.93A8.18,8.18,0,0,1,74.16,76a5.29,5.29,0,0,0-.76,2.46c0,.76-1.84,2-2.38,2.14s-1-.75-2-1.34A11,11,0,0,0,67,78c-.62-.17-1.26,1-1.61,1.55a2.28,2.28,0,0,0,.11,2.18,14,14,0,0,0,2.17,2.83c.59.57,0,.29,0,.69s.57.86,1.09,1.55.27,1.57.86,2.72.22,1.43-.46,2,0,.53.23,1.32-1.63,1.5-2.15,2.08.64,1.66,1.22,1.94.4.76.51,1.4a1.34,1.34,0,0,1-.64,1.37c-.39.29-.11.69.18,1.32A7.35,7.35,0,0,0,70.84,103a10.57,10.57,0,0,1,2.23,2.29c.81,1,1,1.11,1,1.5s-.41,1.16,0,1.84-.11,1.16-.76,2.08-1.25.57-1.78.52-1.09.69-1.27,1.6a17.4,17.4,0,0,1-.87,2.53,4.25,4.25,0,0,0,.34,3.11c.41,1.16-.69,1.39-1.15,2.08s-1.43.62-2,1.37A10.14,10.14,0,0,1,64,124a3.24,3.24,0,0,0-1,2.89c.23.8.85,2.59.63,3.57s-1.5,1.09-2.2,1.09-.51.63-.5,1.44-1.68,1.5-1.68,2.41a10.12,10.12,0,0,1-.13,2.69c-.23.77-2,1.05-2.59,1.69s0,2-.06,2.7-.35,2.46-.41,2.94.4,1,.46,1.54,0,1.33,0,2.31,1.09,2.48,1,3.4a3.67,3.67,0,0,1-.76,2.41c-.79,1.15-.39,1.14-.69,2.13s-1.26.92-1.85,1.67a10.05,10.05,0,0,0-1.32,2.63c-.12.52-1.61,1.61-2.13,2s-.06.68,0,1-1.09,2.52-1,3.49.35,1.68-.57,2.25a7.58,7.58,0,0,1-2.88,1.44c-1.27.21-.69.21-1,.87s-2.43,1-3.22,1.19a3.83,3.83,0,0,1-3,.11c-1.44-.52-3.33,0-4.38,0s-2.35-.65-2.75-.29.1.92.4,1.54-.64.82-.64,2.14,1.38,3.39,1.62,4.2-.66.58-1.23,1.61a2.89,2.89,0,0,0-.12,2.64,1.15,1.15,0,0,1,0,.61h0a15,15,0,0,0,3,1.26,5.06,5.06,0,0,1,1.64,1.3c.34.3,2.09.85,2.78,1.2a3,3,0,0,0,2,.21c.3-.16.45-1,.91-1s2.49.86,2.93.81.15-1.75.51-2.38,1.84-.85,2.14-.91.36.3.36.9.74.69,1.39.91.84,1.19,1.8,1.19.74-.5,1-.55,1.19,1.25,1.6,1.3.64-.29.94-.35,1.2.6,1.6.6-.41.8-.74,1,.14,1,.23,1.5-.45.09-.44,1.29,1.92,3.65,2.88,3.86,1.5-.51,1.9-.66.4.19,1.1.35.63-.69.85-1,.69.56,1.55.61,1-.56,1.44-.85a.74.74,0,0,1,.85.05,10.2,10.2,0,0,0,1.34-.31c.26-.09.56-1.23.55-1.44s.54.16,1.1.59a7,7,0,0,0,2.5,1.56,3.85,3.85,0,0,0,1.94-.49c.34-.14.5-.74,1-.35a10.85,10.85,0,0,1,1.19,2.05c.26.39,1.25.31,1.84.4s1.71-.49,2.35-.49.94.54,1.38.94a8.53,8.53,0,0,0,2.21.81c.84.29.46.65.46,1s-.86,1.24-.86,1.69a4.59,4.59,0,0,0,.7,2,1.78,1.78,0,0,1,0,1.8c-.32.34-1,1.74-1.25,2s-.1.15.45.89.25,2.06.4,2.65a4.15,4.15,0,0,0,1.3,1.69c.49.52,1.79.67,2.63,1.31a3.92,3.92,0,0,1,1.25,2c.1.3,1.44-.85,2.5-.75a16,16,0,0,1,4.24,1.31A18,18,0,0,0,97,218.93c.51.19.76-.9.61-1.3s-.56-.4-1.27-1.25a4.43,4.43,0,0,0-2.28-1.19c-.6-.27-.09-.36.3-.59s.61-1,1.51-.65A15.18,15.18,0,0,0,99.48,215c.86,0,4.1.36,4.7.36s.34-1.15.34-1.65a7,7,0,0,1,.26-1.21c0-.25-.25-.84-.26-1.18s.2-.46.36-.76-.2-.75-.15-1.14a2.35,2.35,0,0,0-.2-1.6,1.33,1.33,0,0,1,.21-1.65,3.27,3.27,0,0,0,.84-2.34c-.19-.74-.49-.85-.33-1.14a1.33,1.33,0,0,0-.22-1.29c-.34-.56.12-.76.41-1s.14-.25-.29-.35,1-.78,2.24-1a19.07,19.07,0,0,0,3-1.15c.34,0,.11.31.3.71s.74,0,1.15.09,1,1.06,1.25,1.3.45-.34.7-.65l.27,0a67.42,67.42,0,0,1-1.32-20.93c1.4-16.23,5.47-25.45,7.54-28.64s6.16-9.92,7.36-10.51,1-1.13,1.91-1.3a2.09,2.09,0,0,0,1.55-1.14c.43-.59,1-1.36,1.64-1.36a.92.92,0,0,0,1-.6c.1-.27-.68-1.22-.85-2.25a2.78,2.78,0,0,0-1.82-2.07c-.6-.1-1.11,1-1.82,1s-1.21.26-1-.26-.35-.51-.69-.51,1.12-1.73,1.73-2.33.87-1.9,1.38-2.94,1.47-3.27,1.91-4,.95-1.2,1.82-.67a3.47,3.47,0,0,1,1.37,1.9c.26.61.7-.7,1.47-1s2.41.17,3.19.6.26.68-.51,1.21.43.34,1.38.68-.17.36-.7.8,0,1.1.43,2-.17.33-1,.33-.95-.26-.85-.68-1.31,1.19-1.74,1.63.52,1,.94,1.29.62-1.71,1.13-1.2,0,.86.86,1.72.69-.09.61-.6.44-.08.94.35.43.35.62,0,.68-.51,1.46,0,1,.34,1.9.34-1.89-1.12-2-1.9a24.62,24.62,0,0,1,.19-2.51c0-.69-1.48,1-1.48.44s1-3.64,2.26-4.32,6.39-3.17,7.78-4.13,1.29-.95,2.51-1,4.93-1.12,6.91-1,6.73-.33,7.16.36,0,2.75-.26,3.37,1.45.87,2.16.86,2.08-1.47,2.32-1.64.1-.69.7-1.2.61,1,.68,1.47,2-.77,2.34-.76-.43,1.27-.95,1.89,1,.68,1.56.85.33.36.16,1,1.66-.08,2.34.09-1.21.43-1.65.87-1.46.51-1.64,1-.68.61-1.55.95.18.52.18,1.38.68.25,1.36.17.36.26.44.52,1.48-.53,1.9-1,.27.7.18,1.39.93-.7,1.2-1,.61.69.61,1.37,1.11,1.3,1.46,2-.61.44-1,.44a1.75,1.75,0,0,0-1.45,1.11c-.37.79.75,1.3,1.53,1.73s.53-.25.53-.59.26-.1.77.44,1.65,0,2.16.43-.09,1.29.09,1.89,1.63-1.21,1.64-.52.34,2.68,1.12,3.37,1.18.43,1-.33a5.66,5.66,0,0,1,.34-2.86c.37-.78.79-.43,1.48-.67s.08-1.48.08-2.09-1.11-1.64-1.46-2.16.26-1,.52-2-.69-1.39-1.21-1.89-.08-2.61-.59-3.13a4,4,0,0,0-3.18-.25c-.88.34-.71-.61-.79-1s1.3-.87,1.82-.84.86-.87,1.54-.87a4.7,4.7,0,0,1,2.17,1c.69.43,1.11-2.43,1-3s-2.26.7-2.94.78-1.29-1.22-1.64-2.07-.26-1-.77-1-.35.86-.79,1.55-1.37,1-2,1.38-.87-.18-.53-.6.18-2.85,0-3.71a5.53,5.53,0,0,0-2-2.51c-.78-.61,1.12-.53,1.71,0s.69.17,1.39.51-.26-1.63.86-1,1-.16,1.56-.34a2.68,2.68,0,0,0,1.47-.77c.34-.43-.78-.17-1.37-.17s-.52-1-.35-1.48-1.39-.59-1.21-1.29,1.22-1.29,1.47-2-1.12-1.31-.42-2.08a1.59,1.59,0,0,0,0-2.08c-.35-.42-1.39-1.63-1-1.38a2.94,2.94,0,0,0,1.82.35c.94,0,1.38-.16,1.9.44s0,.52-.18,1a1.5,1.5,0,0,0,.43,1.63c.51.44.7-.42,1,.09s.44.44,1,.52.87-1.89.7-2.42a6.39,6.39,0,0,1-.18-1.81c0-.43.44-.6,1-.77s-.09-.86-.78-1.22-.43-2.14-.43-2.92-.95-.35-1.3.43a.58.58,0,0,1-1.11,0c0-.26-.53-.17-.86.44s-1.13.59-2.08.5-1.21-2-1.64-3.35-1.13-.37-1.65-.11-.67-1-.77-1.63a1.36,1.36,0,0,1,1-1.39c.52-.07,1.55-.15,2.42-.25s.35-.6.53-1a2.58,2.58,0,0,1,1-1.12c.26-.09.61-.86.87-1s.35-.41-.11-.51,1.23-.43,1.56-.53.71-1.45,1-1.88a10.72,10.72,0,0,0,.35-2.86c0-.42-1.64-.33-2.51-.42s-2.93-.88-4.41-1.13-2.24.08-3-.09.27-1.4.52-1.73-1-1.73-1.2-2.43.94-.25,1.8-.25,1-.52,1.57-.78a5.18,5.18,0,0,1,2.67.27c1,.26.36-2.75.43-3.1s1.48,1.2,2.42,1.38,1-4.16,1.47-4.41.79.54,1.12,1,1-.18,1.39-.35.69.52,1,.87-.35,1.13-.35,1.13a2.46,2.46,0,0,0,.7,1.2c.51.44,1.29-3.45.68-4s-.76-1-.33-1.31a1.82,1.82,0,0,0,0-2.08,3.69,3.69,0,0,0-2.15-.69c-1-.08-1-.86-1-1.39s-1.12-2.15-1.71-3-.09-2.51,0-3.46,2.94-1.81,3.29-1.81,1.29-.85,1.55-1.29,2-.69,2.07-.95,0-1.47,1.31-1.54,1.38-.86,2.16-1-1.82-1-2.25-1.46,0-2.16-.08-2.78a7.87,7.87,0,0,1,.44-2.92c.25-.34.09-1.06.16-1.48S194,37.66,194,37.27c0-.11,3.61,2.37,3.7,2.4.74.27-1.72-2.7-1.71-3.3s1.79,1.77,2.4,2.72a3,3,0,0,0,2,1.55c.79.17-.59.18-1.2.62s.33,1.11.78,1.63-.87.51-.87,1,1.37,1.21,1.37,2.07a4.68,4.68,0,0,0,1.47,2.51c.61.69,1.38-1.13,1.39-1.73s-1.05-1.21-1.64-1.12.59-1.12.33-1.39,0-1,.61-1.29.18-1.8-.5-2.42-.35-.6-.86-.43-.62-.26-.53-.78.7-.59,1.21-.59.61-.43.95-1,.27,0,.88,2,3.18,4.06,4.22,4.66S207.3,41.79,207,41a3.5,3.5,0,0,1,0-2.49C207.22,37.81,207,38,206.55,37.89Z"/></svg>